/* XPM */
static char * Vietnamese_Soft_Seat_Coach_Purchase_xpm[] = {
"65 14 256 2",
"  	c #0000FF",
". 	c #101010",
"+ 	c #202020",
"@ 	c #303030",
"# 	c #404040",
"$ 	c #505050",
"% 	c #646464",
"& 	c #747474",
"* 	c #848484",
"= 	c #949494",
"- 	c #A8A8A8",
"; 	c #B8B8B8",
"> 	c #C8C8C8",
", 	c #D8D8D8",
"' 	c #E8E8E8",
") 	c #FCFCFC",
"! 	c #343C48",
"~ 	c #444C5C",
"{ 	c #586070",
"] 	c #6C7484",
"^ 	c #848C98",
"/ 	c #9CA0AC",
"( 	c #B0B8C4",
"_ 	c #CCD0DC",
": 	c #302C04",
"< 	c #403C0C",
"[ 	c #504C14",
"} 	c #605C1C",
"| 	c #787840",
"1 	c #949464",
"2 	c #B0B084",
"3 	c #CCCCA8",
"4 	c #482C04",
"5 	c #583C14",
"6 	c #68502C",
"7 	c #7C6848",
"8 	c #98845C",
"9 	c #B8A078",
"0 	c #D4BC94",
"a 	c #F4DCB0",
"b 	c #400004",
"c 	c #580410",
"d 	c #701020",
"e 	c #882034",
"f 	c #A0384C",
"g 	c #BC546C",
"h 	c #CC687C",
"i 	c #DC8490",
"j 	c #EC9CA4",
"k 	c #FCBCC0",
"l 	c #FCD000",
"m 	c #FCE83C",
"n 	c #FCFC80",
"o 	c #4C2800",
"p 	c #603C08",
"q 	c #74581C",
"r 	c #887438",
"s 	c #9C8850",
"t 	c #B09C6C",
"u 	c #C4B488",
"v 	c #441800",
"w 	c #602C04",
"x 	c #804408",
"y 	c #9C6010",
"z 	c #B87818",
"A 	c #D49C20",
"B 	c #E8B810",
"C 	c #FCD400",
"D 	c #FCF880",
"E 	c #FCFCC0",
"F 	c #200400",
"G 	c #401408",
"H 	c #541C10",
"I 	c #6C2C1C",
"J 	c #803828",
"K 	c #944838",
"L 	c #A85C4C",
"M 	c #B86C58",
"N 	c #C4806C",
"O 	c #D49480",
"P 	c #083400",
"Q 	c #104000",
"R 	c #205004",
"S 	c #306004",
"T 	c #40700C",
"U 	c #548414",
"V 	c #68941C",
"W 	c #80A82C",
"X 	c #1C3418",
"Y 	c #2C4420",
"Z 	c #3C5830",
"` 	c #50683C",
" .	c #687C4C",
"..	c #80945C",
"+.	c #98B06C",
"@.	c #B4CC7C",
"#.	c #103418",
"$.	c #20482C",
"%.	c #386048",
"&.	c #4C7458",
"*.	c #60886C",
"=.	c #78A488",
"-.	c #98C0A8",
";.	c #B8DCC8",
">.	c #201800",
",.	c #381C00",
"'.	c #482804",
").	c #58340C",
"!.	c #684018",
"~.	c #7C542C",
"{.	c #8C6C40",
"].	c #A08058",
"^.	c #4C2810",
"/.	c #603418",
"(.	c #744428",
"_.	c #885438",
":.	c #A46040",
"<.	c #B87050",
"[.	c #CC8060",
"}.	c #D49470",
"|.	c #E0A880",
"1.	c #ECBC94",
"2.	c #501C04",
"3.	c #642814",
"4.	c #783828",
"5.	c #8C4C40",
"6.	c #A06460",
"7.	c #B88888",
"8.	c #242844",
"9.	c #303454",
"0.	c #404064",
"a.	c #505074",
"b.	c #646488",
"c.	c #8484A4",
"d.	c #ACACC0",
"e.	c #D4D4E0",
"f.	c #281470",
"g.	c #402C90",
"h.	c #5840AC",
"i.	c #684CC4",
"j.	c #7858E0",
"k.	c #8C68FC",
"l.	c #A088FC",
"m.	c #BCA8FC",
"n.	c #00186C",
"o.	c #002484",
"p.	c #0034A0",
"q.	c #0048B8",
"r.	c #0060D4",
"s.	c #1878DC",
"t.	c #3890E8",
"u.	c #58A8F0",
"v.	c #80C4FC",
"w.	c #BCE0FC",
"x.	c #104060",
"y.	c #18506C",
"z.	c #286078",
"A.	c #347084",
"B.	c #508CA0",
"C.	c #74ACC0",
"D.	c #9CCCDC",
"E.	c #CCF0FC",
"F.	c #AC3434",
"G.	c #D43434",
"H.	c #FC3434",
"I.	c #FC6458",
"J.	c #FC907C",
"K.	c #FCB8A0",
"L.	c #FCD8C8",
"M.	c #FCF4EC",
"N.	c #481470",
"O.	c #5C2C8C",
"P.	c #7044A8",
"Q.	c #8C64C4",
"R.	c #A888E0",
"S.	c #C8B0F8",
"T.	c #D0B8FF",
"U.	c #E8D0FC",
"V.	c #3C0000",
"W.	c #5C0000",
"X.	c #800000",
"Y.	c #A00000",
"Z.	c #C40000",
"`.	c #E00000",
" +	c #FC0000",
".+	c #FC5000",
"++	c #FC6C00",
"@+	c #FC8800",
"#+	c #FCA400",
"$+	c #FCC000",
"%+	c #FCDC00",
"&+	c #FCFC00",
"*+	c #CC8808",
"=+	c #E49004",
"-+	c #FC9C00",
";+	c #FCB030",
">+	c #FCC464",
",+	c #FCD898",
"'+	c #081858",
")+	c #0C2468",
"!+	c #14347C",
"~+	c #1C448C",
"{+	c #285CA4",
"]+	c #3878BC",
"^+	c #4898D8",
"/+	c #64ACE0",
"(+	c #5C9C34",
"_+	c #6CB040",
":+	c #7CC84C",
"<+	c #90E05C",
"[+	c #E0F4FC",
"}+	c #C8ECF8",
"|+	c #B4DCEC",
"1+	c #84BCD8",
"2+	c #5898AC",
"3+	c #F400F4",
"4+	c #F500F5",
"5+	c #F600F6",
"6+	c #F700F7",
"7+	c #F800F8",
"8+	c #F900F9",
"9+	c #FA00FA",
"0+	c #FB00FB",
"a+	c #FC00FC",
"b+	c #FD00FD",
"c+	c #FE00FE",
"d+	c #FF00FF",
"e+	c #4C1808",
"f+	c #6C2C18",
"g+	c #904834",
"h+	c #B06C54",
"i+	c #D2927E",
"j+	c #FC3C00",
"k+	c #FC5400",
"l+	c #FC6800",
"m+	c #FC7C00",
"n+	c #FC9400",
"o+	c #FCAC00",
"p+	c #FCC400",
"q+	c #400000",
"r+	c #FF0000",
"s+	c #303000",
"t+	c #404000",
"u+	c #505000",
"v+	c #FFFF00",
"w+	c #204470",
"x+	c #244874",
"y+	c #284C78",
"z+	c #2C507C",
"A+	c #305480",
"B+	c #486490",
"C+	c #6484A8",
"D+	c #D8F4FC",
"E+	c #6080A4",
"F+	c #44608C",
"G+	c #FFFFFF",
"G+G+G+G+G+G+G+G+G+G+G+G+G+G+G+G+G+G+G+G+G+G+G+G+G+G+G+G+G+G+G+G+G+G+G+G+G+G+G+G+G+G+G+G+G+G+G+G+G+G+G+G+G+G+G+G+G+G+G+G+G+G+G+G+G+",
"G+                                                                                          )+)+)+)+!+)+!+!+!+R S R S R S S R S G+",
"G+                        & * * * * & * * * * * * * * * * * * * * * * = $ % $ % $ % $       '+~+~+~+!+{+~+{+{+T S U T U U U U S G+",
"G+                      # * = ^ = = = = = ^ = = ^ = = ^ = = = = = = = - % & % & % & % $     )+!+~+> > > {+~+{+T T T U T U U U S G+",
"G+                      # = - - - - - - - - - - - - - - - = - - - - - ; & = & = & = & $     '+~+; > ~+> > {+~+T T T T U T U U S G+",
"G+                      @ - ; ; ; ; ; ; ; ; ; ; ; ; ; ; ; ; ; ; ; / ; ; ; ; ; ; ; ; ; #     '+!+!+!+~+> > !+{+> , , S T ' , ' S G+",
"G+                      @ ~+)+)+~+!+~+)+~+~+~+{+!+{+!+~+{+{+{+~+~+{+{+]+~+{+{+]+{+{+^+#     '+!+!+~+; > > ~+> , S , T , , U , S G+",
"G+                      @ ; 0.a.; a.b.; a.b.c.; a.b.c., a.b.c., a.b.c., a.b.c., b.c.' #     '+!+!+; > ; ~+~+> > T S T , , T U R G+",
"G+                      @ ; 9.0.; 0.a.; 0.a.b.> 0.a.b.; 0.a.b., 0.a.b., 0.a.b., a.b.' #     '+!+; ; ; ~+!+~+> > S T S , , T T S G+",
"G+                      @ ~+)+)+!+~+~+~+~+{+!+{+{+{+{+~+{+~+{+!+~+{+~+]+]+{+]+{+~+~+]+#     '+)+; ; !+!+~+!+> > S > T > , T , R G+",
"G+                      . R Q Q R Q R P P P P S R S R R S R S S R S T S S S T S R R S .     '+)+- ; ; ; ; ~+!+> > > S T > , , R G+",
"G+                        Q P P x v v v w   @ @   @ @ @ @ @   @ @ @   x v v v w Q Q S       '+)+)+)+!+!+!+!+~+R S S S S T S T R G+",
"G+                              y x   y x         # # # # #   # # #   y x   y x             '+'+'+'+'+'+'+'+'+P P Q Q Q Q P Q P G+",
"G+G+G+G+G+G+G+G+G+G+G+G+G+G+G+G+G+G+G+G+G+G+G+G+G+G+G+G+G+G+G+G+G+G+G+G+G+G+G+G+G+G+G+G+G+G+G+G+G+G+G+G+G+G+G+G+G+G+G+G+G+G+G+G+G+"};
